<svg version="1" xmlns="http://www.w3.org/2000/svg" width="666.667" height="666.667" viewBox="0 0 500.000000 500.000000"><path d="M230.7 81c-3.8 1.1-8.2 2.7-9.7 3.5-2.5 1.3-3.3 1.3-6.7-.1-5.8-2.5-17-.8-24.1 3.6-4.1 2.5-7.6 9.8-7.7 16 0 5.6-.9 7-4.2 7-2.7 0-9.3 6-9.3 8.5 0 .8-1.5 1.7-3.7 2-23.5 4-36.7 18.6-42.6 47.6-.9 4.1-2.9 10.9-4.5 15-3.9 9.8-5.5 19.6-4.9 29.4 2.3 36.8 2.7 40.7 4.9 55 1.7 11.3 13 35.7 15.7 34.1.4-.3 1.3 2.9 1.9 7.1.7 4.3 2.1 9.2 3.3 11.1 1.1 1.9 1.8 3.7 1.5 3.9-.2.3-1.4-1.2-2.5-3.4-1.1-2.1-2-3.3-2.1-2.8 0 .6.9 2.7 2 4.8 2.5 4.7 4.1 19.7 3 28-.5 3.6-1.9 7.4-3.5 9.9-3.9 5.9-3.2 8.7 3.3 12 3 1.5 7.5 3 10 3.4 2.6.3 7 1.7 9.7 3 2.8 1.3 6.6 2.7 8.5 3 2.3.5 5.6 2.6 9.6 6.4 3.4 3.1 7.9 7 10.1 8.5 2.2 1.6 4.5 4.1 5.2 5.6 1.6 3.6 15.6 16.9 21.2 20.2 10.5 6.2 26.4 7.3 38.2 2.7 7.4-2.8 22.5-12.9 26.9-17.8 1.8-2.1 6.7-5.8 10.8-8.2 4.1-2.4 9.8-6 12.6-8.1 3.4-2.5 6.9-4.1 11-4.9 8.4-1.6 20.5-5.7 23.2-7.8 1.3-1 2.5-3 2.5-4.5.2-2.6.3-2.6 6.7-2 3.6.2 8.6 1.2 11.3 2 5.5 1.7 10.8 1.1 15.5-1.7 4.4-2.7 4.1-5.6-.9-10.8-2.2-2.3-4.7-5.9-5.6-7.9-1.9-4.7-3.1-25.7-1.4-26.7.6-.4 1.1-1.2 1.1-1.8 0-.6-.9.1-2.1 1.6-2.1 2.7-5.7 5.1-6.5 4.3-.2-.2.4-1.9 1.3-3.8s3.4-8.8 5.5-15.4c2-6.6 3.8-11.6 3.8-11 .1.5.6-.1 1.1-1.4.8-2 1.2-2.1 2.5-1 .9.7 1.4 2.2 1.1 3.6-.6 3 .3 2.9 3.6-.5 7.5-7.8 12.6-27.4 13.3-51.2.2-8 .7-19 1-24.5.8-11.9-.9-28.3-4.1-41.2-3.7-14.5-16.8-39.2-30.5-57.5-9.3-12.5-12.3-15.6-19.7-21.2-19.8-14.7-34.2-19.9-55.8-20-11.9-.1-13.3-.3-15.9-2.3-3.8-3.1-8.4-4.2-19.1-4.8-7.2-.4-10.4-.1-15.8 1.5zm-46.3 106.4c2.4 2.5 4.2 4.7 4 4.9-.3.2.7.2 2.1-.1 2.5-.4 5.2-3.7 4.7-5.6-.2-.5.4-.4 1.2.3.9.7 1.3 1.7 1 2.2-.3.5-.1.9.3.9.5 0 1.9 2 3.3 4.5s2.8 4.5 3.2 4.5c.3 0 1 .9 1.3 2 .3 1.1 1.2 2.6 2 3.4 1.2 1.1.5 1.4-4.3 1.9-11.9 1.1-30.1 9.5-40.5 18.7-2.8 2.6-6.2 5-7.3 5.4-2 .6-2 .2 1.4-9.6 1.9-5.7 4-10.8 4.7-11.3.7-.6 2.2-2.6 3.4-4.5 2-3.4 3-3.5 1.2-.2-.5.9-1.2 3.9-1.5 6.7l-.7 5 2-2c2.1-2.1 8.1-19 8.1-23 0-2 4.3-8.5 5.6-8.5.2 0 2.4 2 4.8 4.4zm67.1 21.9c6.6 5.3 19.3 13.6 25.2 16.3 3.5 1.6 6.3 3.2 6.3 3.5 0 .3-2.2 1.1-4.8 1.7-6.9 1.8-14.3 5.5-18.5 9.2l-3.7 3.2-6.3-2.3c-7.8-3-16.8-3.1-25.5-.5l-6.2 1.9-3.2-3.2c-7.1-7.2-19.7-11.4-34.5-11.5-5.6-.1-9.9-.4-9.5-.7 2.6-2.3 15.6-6.1 23.7-6.9 10.6-1.1 13.8-2.2 16.1-5.7l1.6-2.5 6.8 6.9c3.7 3.7 9 7.9 11.6 9.3 2.7 1.4 5.1 2.7 5.4 3 .3.3 2.7 1.6 5.3 2.8 7.8 3.9 10.6 1.1 6-6-1.5-2.3-3.2-4.6-3.8-5-.5-.4 1.4-.8 4.3-.8 6.8 0 6.8-1.2-.1-10.4-3-3.9-6.6-9.1-8.2-11.6l-2.8-4.5 5.9 5.7c3.2 3.1 7.3 6.7 8.9 8.1zM195 234.7c10.4 2.8 19 9.6 19 15v2.6l-2.4-2.6c-2.4-2.6-6.8-4.4-9.5-3.8-.7.1-1-.2-.6-.8.3-.6.1-1.1-.4-1.1-.6 0-1.1.8-1.2 1.7 0 1.3-.3 1.1-1.2-.7l-1.1-2.5-.4 2.7c-.2 1.6-.7 2.8-1.1 2.8-.5 0-.7-1.2-.4-2.8.3-2.5.3-2.6-.6-.5-.7 1.5-1.9 2.3-3.3 2.2-2.2 0-2.2-.1-.3-.9 1.1-.5 1.4-.9.6-.9-.7-.1-1.1-.7-.8-1.5.4-1 0-1.4-1.3-1.3-1.4.1-1.6.5-.9 1.3 1.5 1.8-.1 2.3-8.2 2.7-4.4.2-9 1.1-11.2 2.1-4.1 2-4.9 3.1-1.4 2.3 2-.5 1.9-.4-.6 1.4-3.9 3-7.7 9.9-7.7 14.2 0 4.7 1.2 4.7 2.9.1 1.7-4.8 7.5-11 12.5-13.6 2.4-1.3 6.6-2.2 10.6-2.4l6.5-.4-4.6 1.3c-9.5 2.7-14.4 9-14.3 18.2 0 7.4 1.4 9.1 9.2 11.5 10.1 3.2 17.7 3.7 20.4 1.4 2.8-2.6 5.8-9.2 5.8-13.2 0-3.7-2.2-9.7-4.8-12.6-1.4-1.6-1.2-1.6 1.3.3 1.7 1.2 4.2 4 5.7 6.2 2.6 3.9 2.6 4 1.1 8.7-2.3 6.9-9.9 17.8-14.6 21.1-6.2 4.2-13.2 6.3-21.8 6.3-10.6.1-17-2.3-23.1-8.3-4.9-4.9-5.9-7.8-3.4-9.8.8-.7 2-3.5 2.6-6.4 1.7-7.2 6.3-15.9 9.9-19 2.6-2.2 2.8-2.6 1.3-3.2-1.5-.6-1.5-.8.3-1.5 1.6-.7 1.7-.9.3-.9-.9-.1-4 2.1-7 4.8l-5.3 4.9.3-5.3c.2-2.9-.1-7-.7-9.1-1.1-3.8-1-4 2.4-7.1 6.6-5.9 26.7-7.7 41.5-3.6zm114.5 1.2l3 .9-3.5.1-3.4.1 3.5 1.8c1.9 1 5.6 2.6 8.2 3.6 2.6 1 4.7 2.1 4.7 2.6 0 .4 2 1.6 4.5 2.7 4.1 1.6 4.7 2.3 6 6.7.8 2.7 1.5 6 1.5 7.3 0 2.3-.1 2.3-3.7-1.1-4.4-4-11.9-9.6-13-9.6-.5 0-2-.7-3.5-1.4-1.6-.8-2.8-1.1-2.8-.5 0 .5-1 .9-2.2 1h-2.3l2.3.9c3.3 1.4 2.7 2.1-.8.9-1.6-.6-2.8-1.4-2.6-1.8.6-.8-18.1-.7-21.9.1-1.8.5-1.4.2 1-.7 3.6-1.4 3.7-1.5.8-1.1-1.7.3-4.5.1-6.2-.4-2.1-.6-3-.5-2.8.3.1.7-1.2 1-3.5.8-3.5-.2-10.8 3.3-13.1 6.3-.5.6-.6 0-.3-1.4s.6-3.2.6-4.1c0-.9 1.9-3.5 4.2-5.7 4.7-4.7 12.2-7.9 20.8-9 6.8-.9 20.4-.5 24.5.7zM249 246.4l3.6 1.8v10.6c0 10.7 1.9 19.4 5.9 27.3.8 1.4 1.1 3 .7 3.4-.4.5-.1.5.6.1.6-.4 1.2-.3 1.2.2 0 2.1 9.4 10.4 14.8 13.1 8.4 4.2 15 5.4 26.1 4.9 10.5-.6 16.4-2.7 23.9-8.7 2.2-1.7 4.2-2.8 4.6-2.6.3.3.4.2.1-.1-.2-.4.7-2.1 2-3.8 4-5.2 7.6-16.3 8.5-25.6l.7-8.5.3 7.5c.6 18.2-.1 38.9-1.6 47-1.8 9.3-3.7 13.2-9.9 20-2.3 2.5-6.1 8.1-8.5 12.4-2.3 4.4-5.5 9.8-7.1 11.9-1.6 2.2-2.9 4.6-2.9 5.3 0 .7-.3 1.4-.7 1.6-.5.1-3.3 3.5-6.5 7.4-5.1 6.4-7.5 8.7-18.2 17.5-5.6 4.6-15.5 10.9-17.1 10.9-.9 0-1.3.5-1 1 1.2 1.9-4.7-.1-9.7-3.2-7.8-4.9-10.8-10.7-10.8-21.2 0-3.9-.3-8.1-.6-9.2-.8-3.1-4.5-4.4-12.8-4.4-9.3 0-10.1.8-11.5 12.2-.5 4.8-1.9 10.5-3.1 12.7-2 4.1-8.5 9.3-13 10.5-1.9.6-2.1.5-1-.3 1.3-.9 1.3-1.1-.2-1.1-2.2 0-23.5-21-27.9-27.5-1.9-2.8-3.7-5.1-4.1-5.3-.4-.2-2.4-3.7-4.4-7.8-2.1-4.1-4.1-7.4-4.6-7.4-.4 0-.7-.3-.6-.8.6-1.6-2.8-8-7-13.6-3.8-4.9-4.8-7.2-6.3-14.4-1.6-7.8-2.5-17.1-1.9-19.7.1-.6.1-1.2 0-1.5-1.3-3.4-.4-3.5 4.2-.4 5.8 3.9 9.9 5.3 19 6.1 18.7 1.7 33.6-6.7 43.2-24.4 2-3.7 3.4-5.7 3-4.4-.4 1.7-.3 2.1.6 1.6.7-.4 1-1.9.8-3.4-.3-1.4-.2-4 .2-5.6.7-2.7.8-2.6.7 1.3 0 2.3.3 4.5.6 4.9.4.3.7-1.6.7-4.3 0-2.7.4-6.5 1-8.4.7-2.6.6-3.9-.5-5.7-1.8-2.7-2-7.7-.2-9 4.5-3.6 20.1-4.1 26.7-.9zm-39.2 9.2c1.4 1.3 2.9 2.4 3.3 2.4.5 0 .9 1.2.9 2.7v2.8l-1.9-3c-1.7-2.9-4.8-5.9-10.1-9.8-1.4-1-.8-.8 1.4.4 2.1 1.2 5 3.3 6.4 4.5zm70.2-4.2c0 .1-2.2 1.7-4.8 3.3-7.6 4.7-12.2 12.2-12.2 19.7 0 2.8.3 2.5 2.3-2.5 3.7-8.9 6.1-11.6 14.4-15.8 5.6-2.8 6.6-2.7 2.1.4-4.3 2.9-7.8 9.6-7.8 15 0 4.7 3.3 11.8 6.7 14.5 3.2 2.5 6.9 2.5 16.9 0 9.3-2.4 11.9-4.8 13-11.5 1.1-8-3.8-16.8-11.4-20.1-4.5-2-.7-1.5 5.1.6 6.9 2.6 11.9 7.1 15.6 13.9 2.5 4.6 3 5.1 3.6 3.3.9-3.1-2.8-10.8-7.2-15-4.1-3.8-5-6.2-2.5-6.2 1.2 0 1.3.3.5 1.1-.9.9.1 2.2 3.8 5 5.3 4.2 8.7 10 11.4 19.1 1.5 5.5 1.5 5.8-.5 9.7-7 13.7-23 19.8-41 15.5-11.7-2.7-19.2-8.8-24.5-20-4-8.3-4-15.4-.2-21.1 2.7-3.8 7.7-6.9 9.1-5.6.3.4.6-.1.6-1.1 0-.9.4-1.5.9-1.2.5.4 2 .2 3.3-.3 2.8-1.2 2.8-1.2 2.8-.7zm-93 8c1.6 2.1.9 6-1.3 6.4-4 .8-6.4-4.7-2.9-6.7 2.3-1.4 2.8-1.3 4.2.3zm102 4.4c0 2.9-1.6 4.4-4.1 4-3-.4-3.9-4.6-1.4-6.5 2.2-1.5 5.5 0 5.5 2.5z"/><path d="M169.7 245.6c-4.4 2.4-2.6 2.7 2.4.5 2.7-1.2 3.6-2 2.4-2-1.1 0-3.3.7-4.8 1.5zM213.8 290.5c-.6 1.4-1.5 2.5-2 2.5-.4 0-.8.7-.8 1.5s-.4 1.5-1 1.5c-.5 0-1 .5-1 1.2 0 1.9 4.4-2.9 5.7-6.2 1.4-3.6.7-4-.9-.5zM150.5 301.2c.4 1 1.1 1.8 1.7 1.8.5 0 .7.4.4.9-.8 1.2 3.4 5.5 6.4 6.7 1.4.6 3.3.8 4.3.6 1.4-.3.8-1-2.5-2.7-2.3-1.2-5.8-3.8-7.6-5.6-1.8-1.9-3-2.6-2.7-1.7zM218.5 303.7c-4.2 6.4-2.3 16.8 3.6 19.9 1.6.8 2.9 1.6 2.9 1.9 0 .2-4.7.4-10.4.4-18.8.1-30.8 4.3-33 11.7-.3 1.1 0 2.7.6 3.6 1.4 1.7 10.8 3.2 10.8 1.7 0-1.7 4.8-.9 9.1 1.6 2.4 1.4 5.5 2.5 6.8 2.5 1.3 0 5.8.6 10 1.4 18.2 3.4 21.3 3.7 26.5 2.7 2.8-.6 9.2-1.5 14.1-2.1 5.3-.7 11.2-2.1 14.3-3.6 5.5-2.5 11.2-3.2 11.2-1.3 0 1.7 7.2.1 9.5-2.2 1.8-1.8 1.9-2.1.5-4.6-4.2-7.5-17.1-11.1-40.5-11.3-6.3-.1-9.3-.4-8-1 5.3-2.2 9.1-10.1 7.3-15-.9-2.4-1-2.4-3.1 2-2.8 5.8-7.5 8.2-15.7 8.2-11.6 0-17.8-6.2-15.3-15.3.6-2.2.9-3.9.8-3.9-.2 0-1.1 1.2-2 2.7zM324.6 307.5c-.9 1.4-2.3 2.5-3.1 2.5-.8 0-1.5.4-1.5 1 0 1.8 1.7 1.1 5.6-2.5 2.4-2.2 3.2-3.5 2.2-3.5-.9 0-2.3 1.1-3.2 2.5z"/></svg>